<?xml version="1.0" encoding="utf-8"?>
<!-- Generator: Adobe Illustrator 16.0.0, SVG Export Plug-In . SVG Version: 6.00 Build 0)  -->
<!DOCTYPE svg PUBLIC "-//W3C//DTD SVG 1.1//EN" "http://www.w3.org/Graphics/SVG/1.1/DTD/svg11.dtd">
<svg version="1.1" id="Capa_1" xmlns="http://www.w3.org/2000/svg" xmlns:xlink="http://www.w3.org/1999/xlink" x="0px" y="0px"
	 width="16px" height="20.243px" viewBox="379.133 377.012 16 20.243" enable-background="new 379.133 377.012 16 20.243"
	 xml:space="preserve">
<g>
	<g>
		<path fill="#4C4C4C" d="M393.753,379.396h-2.703v-1.756c0-0.354-0.285-0.627-0.639-0.627c-0.034,0-0.057,0.011-0.068,0.023
			c-0.011-0.012-0.034-0.023-0.046-0.023h-6.352H383.9h-0.046c-0.354,0-0.627,0.274-0.627,0.627v1.756h-2.714
			c-0.775,0-1.38,0.604-1.38,1.38v1.004v1.254h1.197v12.852c0,0.775,0.593,1.369,1.369,1.369h10.868
			c0.776,0,1.381-0.594,1.381-1.369v-12.852h1.186v-1.254v-1.004C395.133,380,394.529,379.396,393.753,379.396z M384.482,378.267
			h5.303v1.129h-5.303V378.267z M392.681,395.886c0,0.08-0.034,0.114-0.114,0.114h-10.868c-0.08,0-0.114-0.034-0.114-0.114v-12.852
			h11.096V395.886z M393.867,381.779h-13.469v-1.004c0-0.08,0.035-0.125,0.114-0.125h13.24c0.08,0,0.114,0.046,0.114,0.125V381.779
			L393.867,381.779z"/>
		<rect x="389.431" y="384.505" fill="#4C4C4C" width="1.266" height="10.378"/>
		<rect x="386.511" y="384.505" fill="#4C4C4C" width="1.266" height="10.378"/>
		<rect x="383.592" y="384.505" fill="#4C4C4C" width="1.266" height="10.378"/>
	</g>
</g>
</svg>
